<mxfile host="Electron" modified="2023-11-20T19:42:22.574Z" agent="Mozilla/5.0 (Windows NT 10.0; Win64; x64) AppleWebKit/537.36 (KHTML, like Gecko) draw.io/22.1.2 Chrome/114.0.5735.289 Electron/25.9.4 Safari/537.36" etag="OTHzg8RuMm2MLGeiLtx_" version="22.1.2" type="device">
  <diagram name="Strona-1" id="aVnTq10F7FJGn_nObgPH">
    <mxGraphModel dx="1098" dy="828" grid="1" gridSize="10" guides="1" tooltips="1" connect="1" arrows="1" fold="1" page="1" pageScale="1" pageWidth="827" pageHeight="1169" math="0" shadow="0">
      <root>
        <mxCell id="0" />
        <mxCell id="1" parent="0" />
        <mxCell id="HxZ0tnVYBvinbMBndXKt-5" style="edgeStyle=orthogonalEdgeStyle;rounded=0;orthogonalLoop=1;jettySize=auto;html=1;" parent="1" source="HxZ0tnVYBvinbMBndXKt-1" target="HxZ0tnVYBvinbMBndXKt-4" edge="1">
          <mxGeometry relative="1" as="geometry">
            <Array as="points">
              <mxPoint x="310" y="390" />
              <mxPoint x="310" y="390" />
            </Array>
          </mxGeometry>
        </mxCell>
        <mxCell id="HxZ0tnVYBvinbMBndXKt-16" value="Dane o recenzji" style="edgeLabel;html=1;align=center;verticalAlign=middle;resizable=0;points=[];" parent="HxZ0tnVYBvinbMBndXKt-5" vertex="1" connectable="0">
          <mxGeometry x="-0.2362" y="1" relative="1" as="geometry">
            <mxPoint x="9" y="-9" as="offset" />
          </mxGeometry>
        </mxCell>
        <mxCell id="HxZ0tnVYBvinbMBndXKt-1" value="Klient" style="whiteSpace=wrap;html=1;aspect=fixed;" parent="1" vertex="1">
          <mxGeometry x="150" y="350" width="80" height="80" as="geometry" />
        </mxCell>
        <mxCell id="HxZ0tnVYBvinbMBndXKt-3" value="TMBD" style="whiteSpace=wrap;html=1;aspect=fixed;" parent="1" vertex="1">
          <mxGeometry x="630" y="350" width="80" height="80" as="geometry" />
        </mxCell>
        <mxCell id="HxZ0tnVYBvinbMBndXKt-18" style="edgeStyle=orthogonalEdgeStyle;rounded=0;orthogonalLoop=1;jettySize=auto;html=1;" parent="1" source="HxZ0tnVYBvinbMBndXKt-4" target="HxZ0tnVYBvinbMBndXKt-1" edge="1">
          <mxGeometry relative="1" as="geometry">
            <Array as="points">
              <mxPoint x="310" y="420" />
              <mxPoint x="310" y="420" />
            </Array>
          </mxGeometry>
        </mxCell>
        <mxCell id="HxZ0tnVYBvinbMBndXKt-20" value="Dane o fimie" style="edgeLabel;html=1;align=center;verticalAlign=middle;resizable=0;points=[];" parent="HxZ0tnVYBvinbMBndXKt-18" vertex="1" connectable="0">
          <mxGeometry x="0.0071" y="-1" relative="1" as="geometry">
            <mxPoint y="-9" as="offset" />
          </mxGeometry>
        </mxCell>
        <mxCell id="HxZ0tnVYBvinbMBndXKt-19" style="edgeStyle=orthogonalEdgeStyle;rounded=0;orthogonalLoop=1;jettySize=auto;html=1;" parent="1" source="HxZ0tnVYBvinbMBndXKt-4" target="HxZ0tnVYBvinbMBndXKt-1" edge="1">
          <mxGeometry relative="1" as="geometry">
            <Array as="points">
              <mxPoint x="300" y="360" />
              <mxPoint x="300" y="360" />
            </Array>
          </mxGeometry>
        </mxCell>
        <mxCell id="HxZ0tnVYBvinbMBndXKt-21" value="Dane o recenzji" style="edgeLabel;html=1;align=center;verticalAlign=middle;resizable=0;points=[];" parent="HxZ0tnVYBvinbMBndXKt-19" vertex="1" connectable="0">
          <mxGeometry x="0.0643" y="1" relative="1" as="geometry">
            <mxPoint y="-11" as="offset" />
          </mxGeometry>
        </mxCell>
        <mxCell id="HxZ0tnVYBvinbMBndXKt-4" value="0.&lt;br&gt;System Wystawinia recencji" style="ellipse;whiteSpace=wrap;html=1;aspect=fixed;" parent="1" vertex="1">
          <mxGeometry x="390" y="350" width="80" height="80" as="geometry" />
        </mxCell>
        <mxCell id="HxZ0tnVYBvinbMBndXKt-10" style="edgeStyle=orthogonalEdgeStyle;rounded=0;orthogonalLoop=1;jettySize=auto;html=1;" parent="1" source="HxZ0tnVYBvinbMBndXKt-3" target="HxZ0tnVYBvinbMBndXKt-4" edge="1">
          <mxGeometry relative="1" as="geometry">
            <mxPoint x="480" y="400" as="sourcePoint" />
            <mxPoint x="590" y="430" as="targetPoint" />
            <Array as="points" />
          </mxGeometry>
        </mxCell>
        <mxCell id="HxZ0tnVYBvinbMBndXKt-17" value="Dane o filmie" style="edgeLabel;html=1;align=center;verticalAlign=middle;resizable=0;points=[];" parent="HxZ0tnVYBvinbMBndXKt-10" vertex="1" connectable="0">
          <mxGeometry x="-0.0667" y="2" relative="1" as="geometry">
            <mxPoint y="-12" as="offset" />
          </mxGeometry>
        </mxCell>
      </root>
    </mxGraphModel>
  </diagram>
</mxfile>
